<svg width="24" height="25" viewBox="0 0 24 25" fill="none" xmlns="http://www.w3.org/2000/svg">
<path d="M14.2249 18.9181C14.0749 18.7847 13.9959 18.6137 13.9879 18.4051C13.9792 18.1971 14.0499 18.0181 14.1999 17.8681L18.5499 13.5181H3.1499C2.93324 13.5181 2.75424 13.4471 2.6129 13.3051C2.4709 13.1637 2.3999 12.9847 2.3999 12.7681C2.3999 12.5514 2.4709 12.3721 2.6129 12.2301C2.75424 12.0887 2.93324 12.0181 3.1499 12.0181H18.5499L14.1999 7.66807C14.0666 7.53473 13.9959 7.35973 13.9879 7.14307C13.9792 6.9264 14.0499 6.7514 14.1999 6.61807C14.3332 6.46807 14.5082 6.39307 14.7249 6.39307C14.9416 6.39307 15.1166 6.46807 15.2499 6.61807L20.7749 12.1431C20.8749 12.2264 20.9416 12.3221 20.9749 12.4301C21.0082 12.5387 21.0249 12.6514 21.0249 12.7681C21.0249 12.8847 21.0082 12.9971 20.9749 13.1051C20.9416 13.2137 20.8749 13.3181 20.7749 13.4181L15.2499 18.9181C15.1166 19.0681 14.9459 19.1431 14.7379 19.1431C14.5292 19.1431 14.3582 19.0681 14.2249 18.9181Z" fill="#2A4DFF"/>
</svg>
