<svg width="48" height="48" viewBox="0 0 48 48" fill="none" xmlns="http://www.w3.org/2000/svg">
<g clip-path="url(#clip0_2064_116)">
<path d="M38.8667 -0.09375H30.1795C28.1532 -0.09375 26.5049 1.55457 26.5049 3.58045V12.2681C26.5049 14.294 28.1532 15.9423 30.1795 15.9423H38.8667C40.8926 15.9423 42.5409 14.294 42.5409 12.2681V3.58045C42.5413 1.55457 40.893 -0.09375 38.8667 -0.09375ZM39.7288 12.2681C39.7288 12.7431 39.3421 13.1298 38.8667 13.1298H30.1795C29.7041 13.1298 29.3178 12.7431 29.3178 12.2681V3.58045C29.3178 3.10548 29.7041 2.71876 30.1795 2.71876H38.8667C39.3421 2.71876 39.7288 3.10548 39.7288 3.58045V12.2681Z" fill="#2A4DFF"/>
<path d="M32.1373 19.4532C31.4624 19.4532 30.8263 19.6205 30.2678 19.9161C29.5482 18.8379 28.321 18.1267 26.9305 18.1267C26.2124 18.1267 25.5378 18.3164 24.9541 18.6486C24.2235 17.6565 23.0476 17.0116 21.7237 17.0116C21.307 17.0116 20.9049 17.0754 20.5266 17.194V15.9423H20.8606C22.8868 15.9423 24.5351 14.294 24.5351 12.2677V3.58045C24.5351 1.55457 22.8868 -0.09375 20.8606 -0.09375H12.1733C10.1474 -0.09375 8.4991 1.55457 8.4991 3.58045V12.2681C8.4991 14.294 10.1474 15.9423 12.1733 15.9423H12.5076V24.6537C12.2901 24.4358 12.0459 24.2414 11.7778 24.0748C10.9139 23.5383 9.90095 23.3515 8.90779 23.5426C7.83955 23.5855 6.88117 24.0517 6.25861 24.8365C5.60456 25.6608 5.37751 26.766 5.63495 27.8691L7.48322 35.7781C8.53718 42.3769 13.6847 47.3138 13.904 47.5215C14.1651 47.7686 14.5112 47.9063 14.8708 47.9063H30.6875C31.161 47.9063 31.6023 47.6679 31.8627 47.2724C34.6638 43.0112 36.1451 38.0637 36.1455 32.9645L36.147 23.4628C36.147 23.4628 36.147 23.4628 36.147 23.4624C36.147 21.2516 34.3481 19.4532 32.1373 19.4532ZM15.4615 45.0938C14.3281 43.8883 10.9882 39.9954 10.2532 35.2911C10.2478 35.2563 10.2412 35.2219 10.2331 35.1882L8.37348 27.2293C8.31159 26.9634 8.34272 26.7342 8.46174 26.5844C8.58039 26.4346 8.78401 26.3563 9.05574 26.3303C9.19233 26.3174 9.2491 26.3013 9.37581 26.2936C9.69478 26.2742 10.0218 26.2951 10.2935 26.4639C10.5653 26.6327 10.7546 26.8971 10.8275 27.2084L12.4315 34.0734C12.5655 34.6466 13.0423 35.0758 13.6261 35.149L13.7389 35.1629C14.1391 35.2131 14.5416 35.0889 14.8441 34.822C15.1466 34.555 15.3198 34.1708 15.3198 33.7676V11.4181C15.3198 10.7578 15.8567 10.221 16.5169 10.221C17.1768 10.221 17.7141 10.7578 17.7141 11.4181V24.605C17.7141 25.3814 18.3436 26.0113 19.1203 26.0113C19.8971 26.0113 20.5266 25.3814 20.5266 24.605V21.0213C20.5266 20.361 21.0635 19.8241 21.7237 19.8241C22.3836 19.8241 22.9209 20.361 22.9209 21.0213V24.7651C22.9209 25.5418 23.5504 26.1713 24.3271 26.1713C25.1039 26.1713 25.7334 25.5418 25.7334 24.7651V22.1364C25.7334 21.4765 26.2706 20.9393 26.9305 20.9393C27.5908 20.9393 28.1277 21.4765 28.1277 22.1364V25.7472C28.1277 26.5236 28.7572 27.1535 29.5339 27.1535C30.3107 27.1535 30.9402 26.5236 30.9402 25.7472V23.4628C30.9402 22.8025 31.4774 22.2653 32.1373 22.2653C32.7976 22.2653 33.3345 22.8025 33.3345 23.4624L33.333 32.9642C33.3326 37.2624 32.1527 41.4398 29.9144 45.0938H15.4615ZM11.3116 12.2681V3.58045C11.3116 3.10548 11.6983 2.71876 12.1733 2.71876H20.8606C21.3359 2.71876 21.7226 3.10548 21.7226 3.58045V12.2681C21.7226 12.7431 21.3359 13.1298 20.8606 13.1298H20.5266V11.4177C20.5266 9.20693 18.7278 7.4081 16.5169 7.4081C14.3061 7.4081 12.5073 9.20693 12.5073 11.4177V13.1298H12.1733C11.6983 13.1298 11.3116 12.7431 11.3116 12.2681Z" fill="#2A4DFF"/>
</g>
<defs>
<clipPath id="clip0_2064_116">
<rect width="48" height="48" fill="white"/>
</clipPath>
</defs>
</svg>
