<svg width="10" height="6" viewBox="0 0 10 6" fill="none" xmlns="http://www.w3.org/2000/svg">
<path d="M4.80013 5.20836C4.70291 5.20836 4.6093 5.19447 4.5193 5.16669C4.42874 5.13892 4.34874 5.08336 4.2793 5.00003L0.508463 1.25003C0.397352 1.12503 0.341797 0.979194 0.341797 0.812528C0.341797 0.645861 0.404297 0.500028 0.529297 0.375028C0.654297 0.263917 0.80013 0.208361 0.966797 0.208361C1.13346 0.208361 1.2793 0.263917 1.4043 0.375028L4.80013 3.77086L8.2168 0.375028C8.32791 0.250028 8.4668 0.190861 8.63346 0.197528C8.80013 0.20475 8.94596 0.263917 9.07096 0.375028C9.19596 0.500028 9.25846 0.649194 9.25846 0.822528C9.25846 0.996417 9.19596 1.13892 9.07096 1.25003L5.32096 5.00003C5.25152 5.08336 5.1718 5.13892 5.0818 5.16669C4.99124 5.19447 4.89735 5.20836 4.80013 5.20836Z" fill="#1C1B1F"/>
</svg>
