<svg width="40" height="40" viewBox="0 0 40 40" fill="none" xmlns="http://www.w3.org/2000/svg">
<path d="M20.0211 19.4573C20.0211 19.4573 19.7473 16.046 19.7473 11.4975C19.4087 8.0901 18.7117 4.84504 16.8698 4.68246C16.2114 4.62436 15.6082 5.14484 15.0828 6.13874C16.0651 2.7409 20.0211 0 20.0211 0C20.0211 0 23.9773 2.7409 24.9595 6.13874C24.4341 5.14484 23.8309 4.62436 23.1725 4.68246C21.3307 4.84504 20.5911 8.0901 20.2525 11.4975C20.2525 16.046 20.0211 19.4573 20.0211 19.4573Z" fill="white"/>
<path d="M19.9787 20.5428C19.9787 20.5428 20.2526 23.954 20.2526 28.5026C20.5912 31.9098 21.2882 35.155 23.1302 35.3176C23.7884 35.3756 24.3916 34.8552 24.9172 33.8612C23.9348 37.259 19.9787 40 19.9787 40C19.9787 40 16.0226 37.259 15.0403 33.8612C15.5658 34.8552 16.169 35.3756 16.8273 35.3176C18.6692 35.155 19.4087 31.9098 19.7473 28.5026C19.7473 23.954 19.9787 20.5428 19.9787 20.5428Z" fill="white"/>
<path d="M20.5427 20.0212C20.5427 20.0212 23.9539 19.7473 28.5025 19.7473C31.9097 19.4087 35.1549 18.7117 35.3175 16.8699C35.3755 16.2115 34.8551 15.6083 33.8611 15.0828C37.2589 16.0652 39.9999 20.0212 39.9999 20.0212C39.9999 20.0212 37.2589 23.9774 33.8611 24.9596C34.8551 24.4342 35.3755 23.831 35.3175 23.1726C35.1549 21.3308 31.9097 20.5912 28.5025 20.2526C23.9539 20.2526 20.5427 20.0212 20.5427 20.0212Z" fill="white"/>
<path d="M19.4573 19.9788C19.4573 19.9788 16.046 20.2526 11.4975 20.2526C8.0901 20.5912 4.84504 21.2882 4.68246 23.1302C4.62434 23.7884 5.14484 24.3916 6.13874 24.9172C2.7409 23.9348 0 19.9788 0 19.9788C0 19.9788 2.7409 16.0227 6.13874 15.0403C5.14484 15.5658 4.62436 16.169 4.68246 16.8274C4.84504 18.6693 8.0901 19.4087 11.4975 19.7473C16.046 19.7473 19.4573 19.9788 19.4573 19.9788Z" fill="white"/>
<path d="M20.3987 19.6312C20.3987 19.6312 22.6171 17.0254 25.8333 13.8091C28.0033 11.1603 29.8051 8.37287 28.6177 6.95553C28.1931 6.44889 27.3987 6.39041 26.3243 6.72161C29.4215 5.01363 34.1569 5.87287 34.1569 5.87287C34.1569 5.87287 35.0163 10.6083 33.3083 13.7056C33.6395 12.6312 33.5809 11.8367 33.0743 11.4122C31.6569 10.2248 28.8395 11.9965 26.1907 14.1665C22.9745 17.3827 20.3987 19.6312 20.3987 19.6312Z" fill="white"/>
<path d="M19.6012 20.3686C19.6012 20.3686 17.3827 22.9746 14.1665 26.1908C11.9965 28.8396 10.1948 31.627 11.3822 33.0444C11.8066 33.551 12.6012 33.6096 13.6756 33.2784C10.5783 34.9864 5.84284 34.127 5.84284 34.127C5.84284 34.127 4.9836 29.3916 6.69158 26.2944C6.36036 27.3688 6.41886 28.1632 6.92548 28.5878C8.34284 29.7752 11.1603 28.0034 13.8091 25.8334C17.0254 22.6172 19.6012 20.3686 19.6012 20.3686Z" fill="white"/>
<path d="M20.3687 20.3988C20.3687 20.3988 22.9747 22.6172 26.1909 25.8334C28.8397 28.0034 31.6271 29.8052 33.0445 28.6178C33.5511 28.1934 33.6097 27.3988 33.2785 26.3244C34.9863 29.4216 34.1271 34.1572 34.1271 34.1572C34.1271 34.1572 29.3917 35.0164 26.2945 33.3084C27.3687 33.6396 28.1633 33.5812 28.5877 33.0744C29.7753 31.6572 28.0035 28.8396 25.8335 26.1908C22.6173 22.9746 20.3687 20.3988 20.3687 20.3988Z" fill="white"/>
<path d="M19.6312 19.6012C19.6312 19.6012 17.0254 17.3827 13.8091 14.1664C11.1603 11.9965 8.37287 10.1947 6.95553 11.3821C6.44889 11.8066 6.39041 12.6011 6.72161 13.6755C5.01363 10.5783 5.87287 5.84278 5.87287 5.84278C5.87287 5.84278 10.6083 4.98354 13.7056 6.69152C12.6312 6.3603 11.8367 6.4188 11.4122 6.92542C10.2248 8.34278 11.9965 11.1603 14.1665 13.8091C17.3827 17.0253 19.6312 19.6012 19.6312 19.6012Z" fill="white"/>
</svg>
