<svg width="48" height="48" viewBox="0 0 48 48" fill="none" xmlns="http://www.w3.org/2000/svg">
<g clip-path="url(#clip0_2064_133)">
<path d="M47.9433 3.58355C47.8393 1.67686 46.3229 0.160639 44.4162 0.0565764C40.5689 -0.153611 33.0404 0.0508578 25.8415 3.77433C22.1717 5.67258 18.2904 8.89092 15.193 12.6042C15.1549 12.6499 15.1178 12.696 15.0799 12.7418L8.0505 13.2848C6.89344 13.3742 5.86285 13.9807 5.22291 14.9486L0.427223 22.2022C-0.0581211 22.9363 -0.135277 23.8549 0.220691 24.6596C0.576754 25.4643 1.30838 26.0251 2.17791 26.1599L8.10019 27.0771C8.07929 27.1922 8.05829 27.3073 8.03907 27.4224C7.84191 28.6018 8.23266 29.8143 9.08447 30.666L17.3337 38.9154C18.0399 39.6216 18.9942 40.011 19.972 40.011C20.1734 40.011 20.3759 39.9944 20.5775 39.9607C20.6926 39.9415 20.8076 39.9205 20.9228 39.8996L21.84 45.822C21.9747 46.6915 22.5355 47.4232 23.3401 47.7792C23.6749 47.9273 24.0292 48.0004 24.3818 48.0004C24.8771 48.0003 25.3689 47.8561 25.7976 47.5727L33.0512 42.777C34.0192 42.1369 34.6255 41.1063 34.7148 39.9494L35.2578 32.9201C35.3036 32.8822 35.3498 32.8451 35.3955 32.8069C39.1088 29.7095 42.3273 25.8283 44.2254 22.1583C47.9491 14.9592 48.1532 7.43058 47.9433 3.58355ZM31.5001 40.4308L24.5616 45.0182L23.6676 39.2465C26.6001 38.3843 29.501 37.0034 32.2646 35.1534L31.9109 39.7326C31.8889 40.0183 31.7391 40.2728 31.5001 40.4308ZM19.3224 36.9267L11.0731 28.6773C10.8626 28.4668 10.7653 28.171 10.813 27.8861C11.0583 26.4195 11.4394 25.0235 11.9111 23.7084L24.2888 36.086C22.7093 36.6518 21.2945 36.9893 20.1137 37.1867C19.8283 37.2342 19.5329 37.1371 19.3224 36.9267ZM8.26716 16.089L12.8463 15.7352C10.9962 18.4989 9.61529 21.3998 8.75307 24.3323L2.98144 23.4384L7.569 16.4998C7.72707 16.2607 7.9816 16.111 8.26716 16.089ZM33.5942 30.647C31.3223 32.542 29.1171 33.9126 27.0844 34.9044L13.0949 20.9149C14.3941 18.2614 15.9797 16.0518 17.3528 14.4058C20.2192 10.9694 23.7842 8.00489 27.1338 6.27239C33.7407 2.85492 40.7018 2.67089 44.2631 2.86476C44.7345 2.89045 45.1094 3.26536 45.1351 3.73683C45.3293 7.2982 45.1448 14.2591 41.7274 20.8662C39.995 24.2157 37.0305 27.7806 33.5942 30.647Z" fill="#2A4DFF"/>
<path d="M32.8802 22.1477C34.6804 22.1475 36.4813 21.4622 37.8518 20.0917C39.1799 18.7637 39.9112 16.998 39.9112 15.12C39.9112 13.242 39.1798 11.4763 37.8518 10.1484C35.1104 7.40683 30.6498 7.40702 27.9085 10.1484C26.5805 11.4763 25.8491 13.242 25.8491 15.12C25.8491 16.998 26.5806 18.7637 27.9085 20.0917C29.2793 21.4625 31.0793 22.1479 32.8802 22.1477ZM29.8971 12.137C30.7194 11.3145 31.7997 10.9033 32.88 10.9033C33.9604 10.9033 35.0407 11.3145 35.863 12.137C36.6598 12.9338 37.0986 13.9931 37.0986 15.1199C37.0986 16.2467 36.6598 17.3062 35.863 18.103C34.2183 19.7478 31.5418 19.7477 29.897 18.103C29.1002 17.3062 28.6613 16.2468 28.6613 15.12C28.6613 13.9932 29.1003 12.9338 29.8971 12.137Z" fill="#2A4DFF"/>
<path d="M1.43452 39.5566C1.79443 39.5566 2.15434 39.4193 2.42884 39.1447L7.02005 34.5534C7.56924 34.0043 7.56924 33.1139 7.02005 32.5647C6.47096 32.0155 5.58052 32.0155 5.03134 32.5647L0.440211 37.1559C-0.108977 37.7051 -0.108977 38.5955 0.440211 39.1447C0.714711 39.4193 1.07462 39.5566 1.43452 39.5566Z" fill="#2A4DFF"/>
<path d="M11.2275 36.7725C10.6785 36.2233 9.78801 36.2233 9.23883 36.7725L0.411891 45.5995C-0.137297 46.1487 -0.137297 47.039 0.411891 47.5882C0.686484 47.8628 1.0463 48.0001 1.4062 48.0001C1.76611 48.0001 2.12602 47.8628 2.40052 47.5881L11.2275 38.7612C11.7767 38.212 11.7767 37.3217 11.2275 36.7725Z" fill="#2A4DFF"/>
<path d="M13.4465 40.98L8.85525 45.5712C8.30606 46.1204 8.30606 47.0108 8.85525 47.5599C9.12984 47.8345 9.48975 47.9719 9.84956 47.9719C10.2094 47.9719 10.5694 47.8346 10.8439 47.5599L15.4351 42.9687C15.9843 42.4195 15.9843 41.5292 15.4351 40.98C14.886 40.4308 13.9956 40.4308 13.4465 40.98Z" fill="#2A4DFF"/>
</g>
<defs>
<clipPath id="clip0_2064_133">
<rect width="48" height="48" fill="white"/>
</clipPath>
</defs>
</svg>
