<svg width="48" height="48" viewBox="0 0 48 48" fill="none" xmlns="http://www.w3.org/2000/svg">
<path d="M37.5 16.8435H22.5C21.6716 16.8435 21 17.5151 21 18.3435C21 19.1719 21.6716 19.8435 22.5 19.8435H37.5C38.3284 19.8435 39 19.1719 39 18.3435C39 17.5151 38.3284 16.8435 37.5 16.8435Z" fill="#2A4DFF"/>
<path d="M28.3079 23.5305H22.4414C21.613 23.5305 20.9414 24.2021 20.9414 25.0305C20.9414 25.8589 21.613 26.5305 22.4414 26.5305H28.3079C29.1363 26.5305 29.8079 25.8589 29.8079 25.0305C29.8079 24.2021 29.1363 23.5305 28.3079 23.5305Z" fill="#2A4DFF"/>
<path d="M13.8329 19.3769C13.2614 19.3769 12.6884 19.2404 12.1604 18.9614L10.7624 18.2264C10.5929 18.1364 10.3888 18.1379 10.2163 18.2264L8.82135 18.9599C7.60335 19.6019 6.16035 19.4969 5.04285 18.6869C3.92985 17.8784 3.38235 16.5344 3.61485 15.1784L3.88185 13.6229C3.91335 13.4309 3.85035 13.2374 3.71235 13.1009L2.58435 12.0029C1.59885 11.0414 1.25085 9.63289 1.67685 8.32339C2.10135 7.01539 3.21135 6.08089 4.57335 5.88289L6.13485 5.65639C6.32535 5.62789 6.49035 5.50789 6.57735 5.33389L7.27485 3.92089C7.88385 2.68639 9.11685 1.92139 10.4923 1.92139C11.8678 1.92139 13.0994 2.68639 13.7099 3.92089L14.4089 5.33539C14.4959 5.50939 14.6593 5.62939 14.8498 5.65639L16.4114 5.88289C17.7719 6.08089 18.8819 7.01539 19.3079 8.32339C19.7339 9.63289 19.3859 11.0414 18.4019 12.0014L17.2724 13.1024C17.1329 13.2374 17.0699 13.4324 17.1029 13.6229L17.3699 15.1769C17.6024 16.5314 17.0564 17.8754 15.9449 18.6854C15.3149 19.1429 14.5799 19.3739 13.8389 19.3739L13.8329 19.3769ZM10.4894 15.1589C11.0624 15.1589 11.6368 15.2954 12.1573 15.5699L13.5553 16.3049C13.8373 16.4534 14.0654 16.3394 14.1734 16.2599C14.2844 16.1789 14.4598 15.9989 14.4073 15.6854L14.1404 14.1299C13.9409 12.9644 14.3263 11.7779 15.1724 10.9544L16.3019 9.85339C16.5299 9.63289 16.4939 9.38089 16.4519 9.25189C16.4099 9.12289 16.2929 8.89789 15.9779 8.85289L14.4164 8.62639C13.2464 8.45539 12.2369 7.72189 11.7149 6.66289L11.0173 5.24989C10.8763 4.96489 10.6259 4.92289 10.4894 4.92289C10.3529 4.92289 10.1023 4.96489 9.96135 5.24989L9.26385 6.66289C8.74035 7.72339 7.73085 8.45539 6.56235 8.62639L5.00085 8.85289C4.68735 8.89789 4.57035 9.12139 4.52835 9.25189C4.48635 9.38239 4.44885 9.63289 4.67835 9.85489L5.80785 10.9559C6.65385 11.7839 7.03785 12.9719 6.83835 14.1344L6.57135 15.6869C6.51885 15.9989 6.69585 16.1819 6.80685 16.2614C6.91485 16.3424 7.14735 16.4534 7.42335 16.3064L8.81985 15.5729C9.34335 15.2984 9.91635 15.1604 10.4894 15.1604V15.1589Z" fill="#2A4DFF"/>
<path d="M39 33.1499H9C4.8585 33.1499 1.5 29.7914 1.5 25.6499V22.6499C1.5 21.8219 2.172 21.1499 3 21.1499C3.828 21.1499 4.5 21.8219 4.5 22.6499V25.6499C4.5 28.1354 6.5145 30.1499 9 30.1499H39C41.4855 30.1499 43.5 28.1354 43.5 25.6499V16.6499C43.5 14.1644 41.4855 12.1499 39 12.1499H23.9985C23.1705 12.1499 22.4985 11.4779 22.4985 10.6499C22.4985 9.8219 23.1705 9.1499 23.9985 9.1499H39C43.1415 9.1499 46.5 12.5084 46.5 16.6499V25.6499C46.5 29.7914 43.1415 33.1499 39 33.1499Z" fill="#2A4DFF"/>
<path d="M42 46.5H6C3.519 46.5 1.5 44.481 1.5 42C1.5 39.519 3.519 37.5 6 37.5H42C44.481 37.5 46.5 39.519 46.5 42C46.5 44.481 44.481 46.5 42 46.5ZM6 40.5C5.172 40.5 4.5 41.1735 4.5 42C4.5 42.8265 5.172 43.5 6 43.5H42C42.828 43.5 43.5 42.8265 43.5 42C43.5 41.1735 42.828 40.5 42 40.5H6Z" fill="#2A4DFF"/>
</svg>
